<?xml version="1.0" standalone="no"?>
<!DOCTYPE svg PUBLIC "-//W3C//DTD SVG 20010904//EN"
 "http://www.w3.org/TR/2001/REC-SVG-20010904/DTD/svg10.dtd">
<svg version="1.0" xmlns="http://www.w3.org/2000/svg"
 width="450.000000pt" height="450.000000pt" viewBox="0 0 450.000000 450.000000"
 preserveAspectRatio="xMidYMid meet">
<metadata>
Created by potrace 1.14, written by Peter Selinger 2001-2017
</metadata>
<g transform="translate(0.000000,450.000000) scale(0.100000,-0.100000)"
fill="#000000" stroke="none">
<path d="M2302 4163 c-16 -16 -66 -86 -112 -158 -81 -126 -179 -269 -518 -755
-91 -129 -262 -382 -382 -561 -119 -179 -235 -350 -257 -380 -135 -183 -203
-291 -194 -307 19 -35 448 -431 681 -628 212 -180 572 -437 917 -654 56 -36
100 -66 98 -68 -2 -2 -36 -8 -77 -13 -134 -19 -563 -119 -850 -199 -404 -112
-987 -317 -1168 -411 l-55 -28 116 -1 c104 0 123 3 175 26 197 87 494 193 732
260 491 139 753 196 1096 240 182 23 213 25 250 13 l41 -13 -55 -9 c-51 -8
-582 -111 -710 -138 -170 -35 -312 -73 -426 -115 -141 -50 -618 -239 -643
-254 -10 -6 677 -10 1762 -10 l1777 0 0 234 0 234 -67 11 c-38 6 -140 21 -228
32 -88 11 -196 25 -240 31 -45 6 -246 11 -457 12 -378 1 -378 1 -378 22 0 20
8 22 103 32 313 34 551 23 1126 -53 152 -20 143 -22 139 22 l-3 38 -140 22
c-251 40 -916 83 -1186 76 l-76 -2 -32 152 c-70 333 -138 679 -200 1022 -51
279 -94 496 -159 800 -67 309 -166 785 -192 920 -12 61 -34 166 -50 235 -15
69 -38 169 -50 222 -16 73 -27 102 -43 113 -29 20 -32 19 -65 -12z m56 -388
c35 -121 78 -314 176 -780 83 -399 81 -388 121 -621 18 -110 63 -343 99 -519
37 -176 86 -423 111 -550 24 -126 69 -351 100 -499 31 -148 54 -270 52 -273
-3 -2 -35 9 -73 24 l-68 28 47 3 c56 4 68 21 44 61 -20 34 -49 163 -131 581
-130 658 -156 796 -160 862 -3 37 -25 147 -50 246 -60 238 -114 482 -176 797
-75 386 -118 588 -141 661 l-20 66 -57 -81 c-31 -44 -111 -155 -177 -248 -66
-92 -135 -197 -153 -232 -31 -61 -171 -275 -267 -411 -65 -91 -145 -214 -235
-360 -148 -241 -292 -465 -321 -502 -16 -20 -29 -42 -29 -48 0 -6 11 -29 25
-53 23 -37 18 -33 -39 28 -65 69 -65 70 -49 95 9 14 52 84 96 155 90 146 727
1104 822 1235 34 47 104 146 155 220 51 74 127 180 169 234 l75 100 12 -55 c6
-30 25 -103 42 -164z m-1008 -2095 c0 -5 -2 -10 -4 -10 -3 0 -8 5 -11 10 -3 6
-1 10 4 10 6 0 11 -4 11 -10z"/>
</g>
</svg>
